<svg id="Layer_1" xmlns="http://www.w3.org/2000/svg" viewBox="0 0 692.6374 100.925"> <defs> <style> .cls-1 { fill: #1c9188; } </style> </defs> <g> <path class="cls-1" d="M174.2704,75.7877c-1.4157-.707-2.4956-1.9056-3.2097-3.5626-.7366-1.7052-1.1101-3.9456-1.1101-6.6587v-20.3494c0-6.6046-1.5444-11.7166-4.5905-15.1944-3.0655-3.4964-7.4179-5.2693-12.9363-5.2693-4.6616,0-8.4174,1.2643-11.163,3.7574-1.3885,1.2602-2.5309,2.8421-3.4416,4.7631-.0126.0265-.2302.4821-.2831.6316-.1791.5064-.1613,1.0137.0054,1.3922.1161.2637.299.4771.554.5558.4575.1411.91-.0568,1.4743-.6289,2.1682-2.1981,5.4936-3.2225,9.8991-3.2225,4.4604,0,7.6529,1.0086,9.5789,3.0233v.0002c.006.0063.0127.012.0188.0183,1.8308,1.9045,2.3682,5.5832,2.3682,10.1733v20.3494c0,2.7099-.3735,4.9503-1.1101,6.6587-.7155,1.657-1.7956,2.8556-3.2099,3.5628-.2215.1108-.3378.3593-.2809.6003s.2721.4114.5197.4114h16.6781c.2476,0,.4629-.1704.5197-.4115.0568-.241-.0594-.4895-.2811-.6003Z"></path> <path class="cls-1" d="M456.113,75.7877c-1.4157-.707-2.4956-1.9056-3.2097-3.5626-.7366-1.7052-1.1101-3.9456-1.1101-6.6587v-20.3494c0-6.6046-1.5444-11.7166-4.5905-15.1944-3.0655-3.4964-7.4179-5.2693-12.9363-5.2693-4.6616,0-8.4174,1.2643-11.163,3.7574-1.3885,1.2602-2.5309,2.8421-3.4416,4.7631-.0126.0265-.2302.4821-.2831.6316-.1791.5064-.1613,1.0137.0054,1.3922.1161.2637.299.4771.554.5558.4575.1411.91-.0568,1.4743-.6289,2.1682-2.1981,5.4936-3.2225,9.8991-3.2225,4.4604,0,7.6529,1.0086,9.5789,3.0233v.0002c.006.0063.0127.012.0188.0183,1.8308,1.9045,2.3682,5.5832,2.3682,10.1733v20.3494c0,2.7099-.3735,4.9503-1.1101,6.6587-.7155,1.657-1.7956,2.8556-3.2099,3.5628-.2215.1108-.3378.3593-.2809.6003s.2721.4114.5197.4114h16.6781c.2476,0,.4629-.1704.5197-.4115.0568-.241-.0594-.4895-.2811-.6003Z"></path> <path class="cls-1" d="M552.6362,56.3422c-.2565-.0649-.5236.0708-.6238.317-1.7687,4.3518-4.3294,7.6392-7.6107,9.7705-3.2885,2.1354-6.9138,3.218-10.7754,3.218-3.1809,0-6.1461-.7535-8.8137-2.24-2.6578-1.4789-4.8096-3.7526-6.3956-6.7586-1.5947-3.0171-2.4032-6.7622-2.4032-11.1312,0-3.7585.6222-7.2025,1.8493-10.2365,1.2166-3.0076,3.0289-5.4375,5.3865-7.2222,2.342-1.7726,5.1981-2.6713,8.4888-2.6713,3.6667,0,6.4962,1.1035,8.4097,3.2798,1.8416,2.096,2.8172,5.007,2.9031,8.6588h-22.9009c-1.3377,0-2.4221,1.0844-2.4221,2.4221s1.0844,2.4221,2.4221,2.4221h30.9933c.1455,0,.2846-.0594.3854-.1645.1006-.1049.1542-.2465.1481-.3919l-.1049-2.5175c-.144-3.4307-1.051-6.5847-2.6959-9.3746-1.6517-2.7989-3.9616-5.0184-6.8658-6.5965-2.8999-1.5742-6.2854-2.3725-10.0623-2.3725-4.6285,0-8.8549,1.2109-12.5617,3.5992-3.7013,2.3852-6.6231,5.6669-8.684,9.7536-2.0564,4.0759-3.0992,8.6213-3.0992,13.5094,0,4.9615,1.0437,9.4909,3.1018,13.4621,2.0618,3.9837,4.9503,7.1419,8.5852,9.3871,3.6355,2.2452,7.7178,3.3838,12.1335,3.3838,5.4912,0,10.3373-1.7727,14.4037-5.2689,4.0737-3.5008,6.4999-8.7712,7.2109-15.6646.0274-.2644-.144-.5087-.402-.5729Z"></path> <g> <path class="cls-1" d="M65.7789,52.4887c-.2432-.105-.5273-.0147-.666.2118-3.3731,5.5061-7.134,9.7227-11.1783,12.5323-4.015,2.7901-9.171,4.2048-15.3248,4.2048-5.6853,0-10.8021-1.2646-15.2084-3.7591-4.4013-2.4906-7.8605-6.0538-10.2812-10.5907-2.4292-4.5494-3.6608-9.9173-3.6608-15.9544,0-5.8315,1.127-10.9722,3.3497-15.2794,2.2132-4.2909,5.3534-7.605,9.3332-9.8498,3.9911-2.2509,8.6143-3.3922,13.7414-3.3922,5.5239,0,10.5898,1.6077,15.0569,4.7788,4.4596,3.1663,7.903,8.7007,10.2345,16.4489.0765.2535.3253.413.5893.3746.262-.0386.4562-.2634.4562-.5284V5.5672c0-.2649-.1945-.4899-.4566-.5284-.2609-.0384-.5127.1212-.5889.3749-.3902,1.3009-1.0462,2.3856-1.9497,3.2237-.8856.8218-1.8303,1.2212-2.8882,1.2212-.5734,0-1.2771-.1326-2.093-.3948-.8411-.2673-1.7201-.6121-2.6157-1.0264-2.3243-1.0556-4.7014-1.8955-7.0658-2.4961-2.3813-.6027-5.3015-.9083-8.679-.9083-6.6368,0-12.7608,1.5766-18.2017,4.6859-5.4476,3.1135-9.8035,7.5583-12.9472,13.2108C1.593,28.5789,0,35.1244,0,42.3846c0,6.9155,1.5593,13.1284,4.6348,18.4659,3.076,5.3401,7.3622,9.5545,12.7393,12.5257,5.3692,2.9676,11.4555,4.4723,18.0899,4.4723,5.2318,0,9.9694-1.0244,14.0813-3.0447,4.1145-2.022,7.6022-4.9164,10.3664-8.6027,2.7537-3.6702,4.8303-8.0723,6.1724-13.0837.0686-.2563-.0613-.5241-.3052-.6288Z"></path> <path class="cls-1" d="M107.2941,28.0777c-3.7745-2.2058-8.1003-3.3242-12.857-3.3242s-9.0836,1.1185-12.857,3.3244c-3.7773,2.2097-6.7573,5.3698-8.8569,9.3919-2.0936,4.0082-3.1553,8.6617-3.1553,13.8311s1.0617,9.8246,3.1553,13.8304c2.1,4.0249,5.0802,7.185,8.8571,9.3923,3.771,2.206,8.0969,3.3249,12.8568,3.3249s9.0851-1.1187,12.857-3.3249c3.7764-2.2084,6.7563-5.3683,8.8571-9.3923,2.0936-4.0102,3.1553-8.6634,3.1553-13.8304s-1.0617-9.8185-3.1553-13.8311c-2.1004-4.0212-5.0802-7.1813-8.8571-9.3921ZM109.322,51.301c0,4.6789-.5037,8.7026-1.4972,11.9591-.9774,3.1993-2.5741,5.6678-4.7454,7.3373t-.0004.0002c-2.1653,1.6668-5.0728,2.5118-8.6421,2.5118s-6.4776-.845-8.6433-2.5119c-2.1731-1.6708-3.7694-4.1394-4.7444-7.3375-.9942-3.2519-1.4981-7.2755-1.4981-11.9589s.5041-8.7052,1.4981-11.9596c.975-3.1961,2.5714-5.6648,4.7444-7.3373,2.1677-1.6664,5.0758-2.5114,8.6433-2.5114s6.4747.845,8.6422,2.5112c2.1714,1.6714,3.7681,4.1401,4.7454,7.3373.9936,3.2591,1.4973,7.2829,1.4973,11.9598Z"></path> <path class="cls-1" d="M226.0072,26.1812c-.0683-.2252-.2758-.3792-.5111-.3792h-14.3709c-.2504,0-.4671.1739-.5214.4184-.0543.2443.0684.4936.2953.5996,1.9383.9059,2.9713,2.0732,3.1579,3.5685.1952,1.5649-.3164,3.5797-1.5218,5.991l-12.8417,25.9856-13.9918-28.4902c-.7944-1.7201-1.132-3.1229-1.0036-4.1703.1168-.9686,1.0492-1.9449,2.7712-2.9018.2127-.1181.3186-.3652.2576-.6007-.0611-.2357-.2736-.4001-.517-.4001h-16.6785c-.2331,0-.4391.1512-.5092.3733-.0701.2222.012.4643.2027.5981,1.3496.9462,2.493,2.0206,3.3979,3.1932.9175,1.1901,1.8706,2.6985,2.833,4.4832l21.3942,43.1021c.0907.1827.2767.2967.4781.2967.0143,0,.0289-.0006.0434-.0018.2178-.0177.4029-.1663.4671-.3753.5525-1.7957,1.2146-3.5381,1.9609-5.1644l17.6287-35.5725.6191-1.3428c1.1686-2.2697,2.2465-4.061,3.2035-5.3243.9355-1.2368,2.1271-2.3429,3.5418-3.2872.1956-.1306.2828-.3738.2145-.599Z"></path> <path class="cls-1" d="M309.9062,24.8803c-.1851-.1566-.4522-.1693-.6505-.0311-1.5097,1.0501-2.8895,1.5825-4.1004,1.5825-.7006,0-1.6587-.2347-2.8733-.7068-.6288-.2099-1.3636-.425-2.1848-.6395-.8441-.2202-1.719-.3319-2.5999-.3319-3.7449,0-6.7024,1.6717-8.7898,4.9685-1.3088,2.0665-2.3651,4.5386-3.1588,7.3848v-10.7708c0-.2949-.2388-.5341-.5339-.5341h-12.0623c-.2476,0-.4627.1702-.5197.4112-.0568.2408.0592.4894.2806.6003,1.4352.7191,2.4855,1.8848,3.2105,3.563.7363,1.7082,1.1095,3.9484,1.1095,6.6588v28.5308c0,2.7103-.3733,4.9509-1.1095,6.6596-.7166,1.6576-1.7965,2.856-3.2099,3.5619-.2217.1108-.338.3593-.2811.6003.0568.2412.2721.4115.5197.4115h19.7202c.2649,0,.4897-.1945.5284-.4566.0383-.2622-.1211-.5129-.3749-.5889-2.6632-.7986-4.5599-2.0149-5.6372-3.615-1.0884-1.616-1.6403-3.8273-1.6403-6.5727v-18.4608c0-2.7114.4971-5.2152,1.4769-7.4427.9717-2.2141,2.2772-3.9806,3.8803-5.2502,1.5752-1.246,3.3339-1.8778,5.2277-1.8778,1.3194,0,2.6959.303,4.0908.9005,1.4077.604,2.7706,1.4905,4.0496,2.6347.1255.112.2962.1591.4618.1253.1648-.0331.3047-.1422.3768-.2944l4.9304-10.3841c.1038-.2187.0475-.4798-.1369-.6364Z"></path> <path class="cls-1" d="M503.9426,56.3422c-.2554-.0644-.5236.0706-.6237.317-1.7694,4.3526-4.3299,7.64-7.6105,9.7705-3.2887,2.1354-6.914,3.2178-10.7756,3.2178-3.1761,0-6.1215-.7699-8.7537-2.2884-2.6271-1.5159-4.7634-3.8257-6.3496-6.8651-1.5958-3.0541-2.4049-6.8881-2.4049-11.3957,0-4.2335.7403-7.8587,2.1999-10.7752,1.4512-2.9027,3.3965-5.1243,5.7818-6.6029,2.3861-1.4782,4.9911-2.2275,7.743-2.2275,3.8354,0,7.477,1.4565,10.823,4.3292,3.3623,2.8872,5.865,7.1931,7.4394,12.7981.0721.257.3219.4213.5869.3847.2642-.0364.461-.2623.461-.5291v-21.188c0-.2428-.1637-.455-.3985-.5166-.234-.0613-.4816.043-.6009.2546-.5928,1.0523-1.2006,1.8289-1.8066,2.3074-.5733.452-1.134.6717-1.7146.6717-.4831,0-1.5347-.1761-3.8123-1.0194-2.0454-.7039-3.8789-1.2556-5.4489-1.6399-1.6094-.3926-3.4344-.5918-5.4235-.5918-4.1294,0-8.1003,1.0643-11.8018,3.1634-3.7033,2.1013-6.7528,5.2031-9.0632,9.2192-2.3092,4.0139-3.48,8.8148-3.48,14.2695,0,5.0311,1.0431,9.6129,3.1007,13.6177,2.0627,4.0194,4.9334,7.1953,8.5322,9.4398,3.5996,2.2461,7.7003,3.3854,12.187,3.3854,5.4919,0,10.3384-1.7727,14.4046-5.2691,4.0742-3.5017,6.5001-8.7719,7.2106-15.6644.0272-.2646-.1442-.5087-.4022-.5729Z"></path> </g> <g> <path class="cls-1" d="M331.2846,24.9605c-.7468-.0659-1.4799-.1025-2.1899-.1025-3.5587,0-6.9181.741-9.9849,2.2025-3.0793,1.4683-5.5681,3.5762-7.3967,6.2655-1.8364,2.7005-2.7673,5.8543-2.7673,9.3735,0,2.9472.6752,5.6632,2.0071,8.0723,1.3261,2.4041,3.1452,4.4234,5.4065,6.0015,1.7334,1.2113,3.6239,2.1133,5.6398,2.693-2.3361.8913-4.1199,2.0679-5.3241,3.5021-1.9851,2.3643-2.4966,5.1214-2.2356,7.3138.1495,1.2561,1.2112,7.461,11.3794,7.461,3.0767,0,10.2472-.1048,13.031-.1048,3.3961,0,5.9978.4399,7.7334,1.3075,1.6362.8174,2.4317,2.2737,2.4317,4.4521,0,2.2205-.9191,4.2827-2.7312,6.1292-1.8581,1.8894-4.4002,3.3983-7.5553,4.4847-3.1834,1.0941-6.7425,1.6489-10.578,1.6489-3.5551,0-6.5788-.4645-8.9881-1.3809-2.3762-.9037-4.1327-2.0803-5.2204-3.4971-1.0755-1.4022-1.6208-2.934-1.6208-4.5527,0-2.2281.8431-4.2506,2.4807-6.0357,1.2467-1.359,1.7906-1.4655,1.8215-2.232.0305-.7576-.6149-1.3914-1.3729-1.373-1.5201.0369-4.9578,1.6643-6.7562,2.9079-2.9715,2.0537-4.4782,4.7071-4.4782,7.8867,0,2.5031.9644,4.83,2.8666,6.9158,1.8699,2.0502,4.5378,3.687,7.9292,4.8648,3.3612,1.168,7.2139,1.7604,11.4511,1.7604,5.2818,0,10.2858-.8763,14.8733-2.6045,4.6041-1.7367,8.3258-4.1302,11.0615-7.1144,2.7728-3.0261,4.1787-6.4649,4.1787-10.2207,0-2.4803-.652-4.6329-1.938-6.3982-1.2823-1.758-3.1485-3.0915-5.5464-3.9637-2.3552-.8564-5.1339-1.2907-8.2592-1.2907-2.4093,0-4.8844.0353-7.368.1056-1.4416.0692-3.5856.1041-6.3728.1041-2.031,0-3.5223-.3821-4.4322-1.1362-.8934-.7388-1.3275-1.7365-1.3275-3.0501,0-1.3397.4507-2.4728,1.3772-3.4638.9165-.98,2.0413-1.4565,3.4189-1.4569l2.8516.1052c3.6316,0,7.0277-.7594,10.0945-2.257,3.0775-1.5034,5.5835-3.6826,7.4479-6.4773,1.8688-2.8046,2.8162-6.0453,2.8162-9.6316,0-2.5907-.549-4.967-1.6326-7.0636-.4091-.7906-.9288-1.5682-1.5461-2.331-5.2146-6.2228-12.0678-7.5413-14.6755-7.82ZM337.4324,52.7558c-1.7382,2.2295-4.4374,3.3604-8.0226,3.3604-4.0349,0-6.871-1.4263-8.6706-4.3605-1.8268-2.9765-2.7533-6.4116-2.7533-10.21,0-3.7074.8798-6.7205,2.6153-8.9555,1.7028-2.1946,4.3844-3.3073,7.9693-3.3073,4.1059,0,6.9766,1.41,8.7769,4.3104,1.8257,2.9419,2.7518,6.3586,2.7518,10.1552,0,3.7059-.8974,6.7365-2.6668,9.0072Z"></path> <circle class="cls-1" cx="351.4097" cy="26.8709" r="5.5186"></circle> </g> <path class="cls-1" d="M401.2078,56.3422c-.2565-.0649-.5236.0708-.6238.317-1.7687,4.3518-4.3294,7.6392-7.6107,9.7705-3.2885,2.1354-6.9138,3.218-10.7754,3.218-3.1809,0-6.1461-.7535-8.8137-2.24-2.6578-1.4789-4.8096-3.7526-6.3956-6.7586-1.5947-3.0171-2.4032-6.7622-2.4032-11.1312,0-3.7585.6222-7.2025,1.8493-10.2365,1.2166-3.0076,3.0289-5.4375,5.3865-7.2222,2.342-1.7726,5.1981-2.6713,8.4888-2.6713,3.6667,0,6.4962,1.1035,8.4097,3.2798,1.8416,2.096,2.8172,5.007,2.9031,8.6588h-22.9009c-1.3377,0-2.4221,1.0844-2.4221,2.4221s1.0844,2.4221,2.4221,2.4221h30.9933c.1455,0,.2846-.0594.3854-.1645.1006-.1049.1542-.2465.1481-.3919l-.1049-2.5175c-.144-3.4307-1.051-6.5847-2.6959-9.3746-1.6517-2.7989-3.9616-5.0184-6.8658-6.5965-2.8999-1.5742-6.2854-2.3725-10.0623-2.3725-4.6285,0-8.8549,1.2109-12.5617,3.5992-3.7013,2.3852-6.6231,5.6669-8.684,9.7536-2.0564,4.0759-3.0992,8.6213-3.0992,13.5094,0,4.9615,1.0437,9.4909,3.1018,13.4621,2.0618,3.9837,4.9503,7.1419,8.5852,9.3871,3.6355,2.2452,7.7178,3.3838,12.1335,3.3838,5.4912,0,10.3373-1.7727,14.4037-5.2689,4.0737-3.5008,6.4999-8.7712,7.2109-15.6646.0274-.2644-.144-.5087-.402-.5729Z"></path> <path class="cls-1" d="M268.7597,56.3422c-.2565-.0649-.5236.0708-.6238.317-1.7687,4.3518-4.3294,7.6392-7.6107,9.7705-3.2885,2.1354-6.9138,3.218-10.7754,3.218-3.1809,0-6.1461-.7535-8.8137-2.24-2.6578-1.4789-4.8096-3.7526-6.3956-6.7586-1.5947-3.0171-2.4032-6.7622-2.4032-11.1312,0-3.7585.6222-7.2025,1.8493-10.2365,1.2166-3.0076,3.0289-5.4375,5.3865-7.2222,2.342-1.7726,5.1981-2.6713,8.4888-2.6713,3.6667,0,6.4962,1.1035,8.4097,3.2798,1.8416,2.096,2.8172,5.007,2.9031,8.6588h-22.9009c-1.3377,0-2.4221,1.0844-2.4221,2.4221s1.0844,2.4221,2.4221,2.4221h30.9933c.1455,0,.2846-.0594.3854-.1645.1006-.1049.1542-.2465.1481-.3919l-.1049-2.5175c-.144-3.4307-1.051-6.5847-2.6959-9.3746-1.6517-2.7989-3.9616-5.0184-6.8658-6.5965-2.8999-1.5742-6.2854-2.3725-10.0623-2.3725-4.6285,0-8.8549,1.2109-12.5617,3.5992-3.7013,2.3852-6.6231,5.6669-8.684,9.7536-2.0564,4.0759-3.0992,8.6213-3.0992,13.5094,0,4.9615,1.0437,9.4909,3.1018,13.4621,2.0618,3.9837,4.9503,7.1419,8.5852,9.3871,3.6355,2.2452,7.7178,3.3838,12.1335,3.3838,5.4912,0,10.3373-1.7727,14.4037-5.2689,4.0737-3.5008,6.4999-8.7712,7.2109-15.6646.0274-.2644-.144-.5087-.402-.5729Z"></path> <path class="cls-1" d="M140.4755,75.7877c-1.4157-.707-2.4956-1.9056-3.2097-3.5626-.7366-1.7052-1.1101-3.9456-1.1101-6.6587V26.3364c0-.2949-.2392-.5341-.5341-.5341h-12.0626c-.2476,0-.4627.1702-.5197.4112-.0568.2408.0592.4894.2806.6003,1.4153.7092,2.4954,1.908,3.2101,3.5624.7368,1.7091,1.1103,3.9497,1.1103,6.6592v28.531c0,2.7093-.3735,4.9497-1.1101,6.6588-.7158,1.6567-1.7957,2.8554-3.2099,3.5626-.2215.1108-.3378.3593-.2809.6003s.2721.4114.5197.4114h16.6779c.2476,0,.4629-.1704.5197-.4115.0568-.241-.0594-.4895-.2811-.6003Z"></path> <path class="cls-1" d="M422.2513,75.7877c-1.4157-.707-2.4956-1.9056-3.2097-3.5626-.7366-1.7052-1.1101-3.9456-1.1101-6.6587V26.3364c0-.2949-.2392-.5341-.5341-.5341h-12.0626c-.2476,0-.4627.1702-.5197.4112-.0568.2408.0592.4894.2806.6003,1.4153.7092,2.4954,1.908,3.2101,3.5624.7368,1.7091,1.1103,3.9497,1.1103,6.6592v28.531c0,2.7093-.3735,4.9497-1.1101,6.6588-.7158,1.6567-1.7957,2.8554-3.2099,3.5626-.2215.1108-.3378.3593-.2809.6003s.2721.4114.5197.4114h16.6779c.2476,0,.4629-.1704.5197-.4115.0568-.241-.0594-.4895-.2811-.6003Z"></path> </g> <g> <path class="cls-1" d="M626.4031,68.5781c-.1122-.1277-.2708-.2049-.4404-.2149-.1685-.0066-.3361.0478-.4625.1612-4.036,3.6132-7.5009,5.4937-10.0193,5.4319-.5961-.0151-2.4098-.0611-4.0415-2.7931-1.6265-2.7279-.8082-4.3439-.5392-4.8752,1.127-2.2257,4.3833-4.3715,9.4167-6.205.0655-.0239.1257-.0581.179-.1004l2.1079-.6719.982-.2991c.282-.0839.5685-.167.8626-.2498l1.352-.3665c.2531-.0666.5094-.1321.7672-.1968l1.5842-.3937c.0397-.0015.0798-.0066.1198-.0158,1.9129-.4393,3.951-.8422,6.0576-1.1977.1591-.0269.3023-.113.4003-.2414,1.097-1.4368,1.9771-2.6591,2.5222-3.4314.1466-.2075.1556-.4827.0228-.6998-.133-.2167-.3834-.3356-.6334-.298-2.5914.3705-6.544,1.0244-10.6582,2.0332-10.3129,2.5289-16.6659,6.0313-18.8832,10.4098-.9804,1.9361-1.657,5.0677.6873,8.9921,2.3432,3.9175,5.4192,4.8046,7.5862,4.859.0752.0018.1498.0026.2252.0026,3.6404,0,7.9575-2.2202,12.8309-6.599.1326-.1192.2094-.2885.2112-.4669.002-.1785-.0708-.3492-.2009-.4713-.7122-.6689-1.3974-1.3761-2.0367-2.1021Z"></path> <path class="cls-1" d="M640.5646,18.7915c.1521.0935.3363.1199.5083.071.9305-.2638,1.8896-.4861,2.8503-.6608.1669-.0302.315-.1262.411-.266.0962-.1398.1325-.3124.1008-.4791-.7418-3.9156-.8293-7.0317-.2601-9.2618.1889-.7407.4509-1.379.7784-1.8975.3185-.5033,1.2874-2.0358,4.4657-2.0373,3.1794.0015,4.1482,1.5336,4.4666,2.0373.9366,1.4817,1.3025,3.8093,1.0878,6.9177-.1008,1.4604-.3346,3.1018-.6952,4.8785-.0815.4014-.1718.8209-.269,1.247-.3133,1.3765-.7013,2.842-1.1531,4.3557-.0616.2075-.1238.4147-.1882.624-.0626.2038-.1258.4069-.1893.6089-.4138,1.3125-.8805,2.6845-1.3875,4.0775-.2807.7716-.5821,1.5715-.8959,2.3776-.0587.1505-.058.3175.002.4673.6706,1.6786,1.2685,3.0609,1.6519,3.9245.1023.2303.3306.3786.5823.3786h.0068c.2542-.0026.4826-.1564.5808-.3911.602-1.4379,1.182-2.9023,1.7244-4.352.7098-1.8975,1.3507-3.7641,1.9048-5.5464l.0918-.294c.0957-.3116.188-.62.2785-.9261.4412-1.4961.8246-2.9549,1.1395-4.3373.1041-.4581.193-.8665.271-1.2488.4172-2.0377.684-3.9425.7933-5.6619.2537-3.9977-.3304-7.1521-1.7361-9.3755-1.1563-1.8298-3.4907-4.0128-8.0447-4.0212h-.0006c-.0103-.0004-.03-.0004-.0381,0h-.0002c-4.5577.007-6.8934,2.1907-8.0502,4.0216-.7681,1.2157-1.2961,2.7242-1.5695,4.4834-.4141,2.668-.2491,5.9864.4907,9.8634.0335.1755.1391.3289.291.4228Z"></path> <path class="cls-1" d="M644.9934,55.4345c1.3844-.0526,2.805-.0791,4.2269-.0791.8275,0,1.6686.0048,2.5105.0213.0221,0,.0442-.0004.0659-.0022l1.0641.0291c.2673.007.5339.0158.801.0258l.3324.0118c.3565.014.7114.0298,1.0624.0471l.3643.0191c.2747.0147.5482.0302.8179.0467l.7659.0497c.2301.0158.4599.032.6757.0482.1915.0184,1.2302.1214,2.874.3415.0436.0063.0868.0074.1284.0033l1.756.2646c.868.1306,1.7391.2719,2.5888.4195h.0002l.0506.0088c1.8817.3271,3.71.6932,5.4336,1.088.0476.0107.0953.0158.1424.0158.2526,0,.4877-.1509.588-.3926.3943-.9486.7289-1.931.9947-2.92.0447-.1667.0201-.3444-.0688-.4927s-.234-.2539-.4022-.2929c-2.5252-.5872-5.2377-1.1079-8.062-1.5483-1.8449-.2874-3.3628-.4809-4.3119-.5928l-.2408-.028c-.5749-.0659-.9419-.1023-1.0784-.1159-.005-.0007-.0407-.0033-.0458-.0037-1.3437-.1034-2.7566-.1821-4.2001-.2344-.3503-.0121-.7024-.0232-1.0588-.0331l-.1439-.0033c-.2809-.007-.5617-.0132-.8446-.0184l-.3446-.0055c-.7076-.011-1.3616-.018-2.0316-.0162-.7767-.0033-1.6285.0055-2.5302.0235-.2171.0044-.4172.1192-.5306.3047-.6353,1.0387-1.2771,2.0572-1.9078,3.0267-.1297.1994-.1374.4548-.0201.6616.1176.2072.3435.3334.5782.3223Z"></path> <path class="cls-1" d="M658.3832,24.5104c-.09.3135.0708.6439.3729.7664,4.4447,1.8029,8.2614,4.8407,11.0377,8.7846v.0004c2.9597,4.2045,4.5244,9.1478,4.5244,14.2957,0,5.0997-1.5374,10.0044-4.4462,14.1834-.1704.245-.1481.5755.0539.7951.773.8407,1.5395,1.6381,2.2779,2.3688.1198.1188.2811.1843.4482.1843.0169,0,.0339-.0007.051-.0018.1849-.0151.3541-.1096.4634-.2594,3.6822-5.0434,5.6282-11.0151,5.6282-17.2705,0-12.0126-7.5312-23.0174-18.7406-27.3837-.1711-.0666-.3626-.0559-.5262.0287-.1628.0854-.2811.2366-.3243.4154-.2408.9975-.517,2.038-.8203,3.0926Z"></path> <path class="cls-1" d="M644.9494,33.6273l2.0781,4.9212c.2638.585.4331.9434.4671,1.0152l.245.5159c.0077.0217.0166.043.0269.064.6998,1.453,1.4648,2.9538,2.2737,4.4606l.1446.2697c.8361,1.5472,1.7358,3.1282,2.6738,4.699.1113.1862.3098.3032.5267.3098,1.2113.0386,2.4144.0964,3.5758.1715.0138.0007.0274.0011.0412.0011.2226,0,.4305-.1166.546-.3094.1227-.2046.1209-.4603-.0048-.663-2.0091-3.2412-3.8487-6.5453-5.4669-9.8204l-.4272-.8717c-.0048-.0114-.0098-.0228-.0151-.0339-.0995-.2057-.198-.4106-.2951-.6156l-.2222-.4684c-.009-.0335-.021-.0666-.0359-.0993-.2495-.5453-.6474-1.4331-1.1277-2.5664-.0131-.0309-.0285-.0603-.0458-.0879l-1.3224-3.2846-.6993-1.8478c-.0037-.0118-.0075-.0235-.0118-.0353-.2237-.6078-.4325-1.191-.6351-1.7735-.246-.7079-.4868-1.4276-.7155-2.1381-.0958-.298-.392-.4842-.7031-.4345-1.0104.1553-2.0226.3797-3.0083.6671-.1648.0478-.3032.1604-.3839.312s-.0968.3293-.0447.4927c.2859.8981.5905,1.8092.9051,2.7073.5056,1.4442,1.0624,2.9343,1.6605,4.4429Z"></path> <path class="cls-1" d="M691.7344,64.3637c-1.66-3.2784-5.6707-6.0847-11.9211-8.3413-.1669-.0603-.3518-.0482-.5094.0335s-.2741.2255-.3212.3966c-.2566.9346-.5626,1.8699-.9092,2.7805-.0607.1597-.0548.3367.0162.4919.0712.1553.2014.2752.3621.3337,5.0713,1.839,8.3503,3.9929,9.4824,6.2293.2691.5309,1.0876,2.1469-.5387,4.8745-1.632,2.7327-3.446,2.7787-4.0424,2.7938l-.1174.0018h-.0006c-2.0342,0-6.6541-1.3393-14.7436-10.305-1.5717-1.7415-3.1809-3.6691-4.7831-5.73-.099-.1273-.2428-.2123-.4022-.2381-1.4239-.2274-2.8427-.4275-4.217-.5946-.2522-.0283-.4989.092-.627.3116-.1282.2197-.1133.4945.0377.6991,2.257,3.0572,4.5546,5.8852,6.8288,8.4056,7.0121,7.7709,13.0367,11.7109,17.9068,11.7105.0751,0,.1505-.0007.2241-.0026,2.1679-.0545,5.2441-.9419,7.5877-4.8594t.0004-.0004c2.3434-3.9237,1.6668-7.0553.6866-8.9914Z"></path> <path class="cls-1" d="M641.2433,49.1544c-.1174.1899-.2359.3793-.354.5677l-.36.5718c-.2489.3919-.5.7819-.7524,1.1693l-.225.344c-.1192.1818-.2386.3628-.3586.5435-.0075.011-.7673,1.1506-2.0474,2.8972-.0177.0239-.0335.0493-.0473.0751l-.7033.9383c-1.6947,2.261-3.4215,4.3991-5.1317,6.3547-.2062.2359-.2105.5865-.0101.8271.6536.7848,1.3671,1.5369,2.1205,2.2349.1179.1093.2726.1696.4329.1696.0109,0,.0217-.0004.0326-.0007.1716-.0088.3323-.0865.4458-.2156,1.501-1.7069,3.0291-3.5683,4.5432-5.5339l.2101-.2745c2.1315-2.7835,3.535-4.8646,3.7015-5.1129.9395-1.4129,1.885-2.9038,2.8111-4.4337l.0188-.0313c.3006-.4971.601-1.0012.8939-1.4997l.1753-.2991c.6665-1.1417,1.3036-2.2713,1.8936-3.3575.1017-.1873.103-.4128.0033-.6016-.579-1.0957-1.1323-2.1826-1.6451-3.2305-.1056-.216-.324-.354-.5644-.3569-.2456.0022-.4621.1295-.5729.3433-1.2367,2.3791-2.5999,4.791-4.0634,7.1878-.149.2436-.2973.4831-.4469.7237Z"></path> <path class="cls-1" d="M620.7747,53.8586c.1012.0618.2165.0935.3326.0935.0631,0,.1264-.0092.1878-.0283.9846-.3036,2.0185-.5979,3.0732-.8742.3172-.0832.5195-.3937.4673-.7175-.211-1.3121-.3183-2.6492-.3183-3.9745,0-6.333,2.3892-12.3721,6.7273-17.0048,4.3174-4.6103,10.1455-7.392,16.4062-7.832l.0946-.0063c.2309-.0155.4618-.0272.6915-.0364l.1856-.007c.2962-.0092.556-.014.7953-.014.5387,0,1.076.0191,1.6429.0578.2975.0239.5703-.1693.6548-.4555.3232-1.0983.6117-2.1675.8575-3.1783.044-.1803.007-.3709-.1012-.5217-.108-.1505-.2765-.2469-.4614-.2631-1.0922-.0971-2.1742-.1306-3.2778-.1067l-.2232.0066c-.151.0044-.3015.0099-.4505.0173l-.2682.0129c-.1404.0077-.2796.0169-.4158.0265l-.2714.0188c-.1981.0155-.3957.0335-.5918.053-.1093.0107-.2184.0228-.3231.035l-.3164.0357c-.1326.0162-.2662.0331-.3987.0511l-.2187.0305c-.1426.0202-.2853.0408-.4264.0633-6.8318,1.0762-13.1011,4.5735-17.6533,9.8483-4.6006,5.33-7.134,12.1377-7.134,19.1691,0,1.6936.1475,3.3983.4388,5.0673.0315.1799.1389.3381.2949.4338Z"></path> <path class="cls-1" d="M665.2497,68.3062c-.2228-.2395-.5902-.2715-.8511-.074-4.3436,3.2879-9.5238,5.0257-14.9808,5.0257-4.7225,0-9.3216-1.3342-13.2998-3.8582-3.7223-2.3618-6.7639-5.6718-8.7962-9.5728-.1367-.2623-.4362-.3955-.7225-.3231-1.1088.2829-2.1766.5806-3.1737.8853-.1785.0548-.3242.1847-.3983.3562-.0743.1715-.0695.3665.0129.5343,2.3302,4.7398,5.9053,8.778,10.3386,11.6789,4.775,3.1246,10.3211,4.7759,16.039,4.7759,6.4804,0,12.8725-2.1937,17.9984-6.177.1448-.1126.234-.2822.2449-.4651.011-.1832-.0576-.3621-.188-.4912-.7293-.7204-1.4775-1.4924-2.2235-2.2949Z"></path> </g> <rect class="cls-1" x="578.5376" y="5.0388" width="1.9003" height="71.7905"></rect> </svg>